<?xml version="1.0" standalone="no"?>
<!DOCTYPE svg PUBLIC "-//W3C//DTD SVG 20010904//EN"
 "http://www.w3.org/TR/2001/REC-SVG-20010904/DTD/svg10.dtd">
<svg version="1.0" xmlns="http://www.w3.org/2000/svg"
 width="832.000000pt" height="832.000000pt" viewBox="0 0 832.000000 832.000000"
 preserveAspectRatio="xMidYMid meet">
<metadata>
Created by potrace 1.14, written by Peter Selinger 2001-2017
</metadata>
<g transform="translate(0.000000,832.000000) scale(0.100000,-0.100000)"
fill="#000000" stroke="none">
<path d="M1267 8274 c-1 -1 -24 -5 -51 -8 -146 -20 -322 -115 -426 -230 -19
-22 -40 -44 -46 -50 -5 -6 -19 -26 -29 -43 -11 -18 -23 -33 -27 -33 -4 0 -8
-6 -8 -12 0 -7 -13 -39 -29 -70 -16 -32 -28 -58 -26 -58 2 0 -3 -19 -11 -42
-35 -98 -37 -274 -5 -396 81 -311 338 -533 656 -567 33 -4 65 -7 70 -7 28 1
143 12 160 17 11 2 40 9 65 15 25 6 49 15 54 21 6 5 18 9 28 9 10 0 18 4 18
10 0 5 3 9 8 8 13 -4 87 40 142 83 54 43 95 85 158 164 16 21 93 175 86 175
-3 0 -2 6 4 13 9 11 15 33 27 97 3 14 7 35 9 48 11 51 6 183 -8 247 -44 206
-154 369 -321 480 -70 47 -184 100 -235 110 -73 14 -116 18 -183 20 -42 1 -78
0 -80 -1z"/>
<path d="M4128 8275 c-2 -2 -25 -6 -53 -9 -66 -7 -158 -37 -236 -77 -35 -18
-66 -35 -69 -39 -3 -3 -21 -17 -40 -31 -94 -70 -187 -189 -233 -299 -16 -36
-29 -72 -31 -80 -1 -8 -8 -33 -14 -55 -6 -22 -12 -49 -12 -60 -5 -170 -1 -230
16 -287 3 -9 7 -27 9 -39 8 -43 78 -184 106 -215 10 -11 19 -23 19 -27 0 -13
125 -132 168 -160 74 -48 128 -76 179 -92 26 -8 62 -19 78 -25 25 -8 127 -22
160 -22 370 -1 681 248 759 607 18 86 18 241 -2 315 -8 30 -15 62 -17 70 -6
30 -67 154 -97 198 -68 99 -199 209 -310 260 -80 37 -193 63 -287 66 -50 2
-91 2 -93 1z"/>
<path d="M6978 8275 c-2 -2 -23 -5 -48 -8 -111 -13 -271 -79 -345 -143 -141
-121 -210 -216 -258 -355 -34 -97 -45 -169 -41 -271 4 -104 17 -179 41 -238 4
-8 7 -17 8 -20 13 -55 106 -193 175 -260 73 -71 103 -93 170 -127 30 -15 57
-30 60 -33 3 -3 12 -7 20 -9 8 -2 44 -13 80 -23 79 -24 242 -32 325 -17 86 15
182 48 240 82 47 27 154 104 165 118 3 4 25 30 49 58 50 58 57 69 105 166 49
98 68 173 72 295 3 103 -12 216 -38 278 -6 15 -12 29 -13 32 -19 66 -102 189
-181 265 -59 58 -167 129 -229 152 -16 6 -39 15 -50 19 -11 4 -23 8 -27 9 -5
2 -10 4 -13 5 -27 14 -256 35 -267 25z"/>
<path d="M1213 6025 c-35 -6 -63 -10 -63 -7 0 2 -6 -1 -13 -7 -8 -6 -22 -12
-33 -14 -10 -2 -41 -13 -68 -25 -27 -12 -51 -22 -54 -22 -11 0 -131 -92 -175
-135 -52 -51 -137 -168 -137 -189 0 -8 -7 -19 -15 -26 -9 -7 -13 -15 -11 -18
3 -2 -1 -17 -9 -32 -40 -77 -59 -248 -42 -375 38 -288 236 -523 520 -619 65
-22 106 -28 215 -31 77 -2 186 11 237 29 67 22 154 64 202 97 65 44 159 135
185 178 12 20 28 42 35 49 7 7 13 19 13 27 0 7 3 15 8 17 17 7 47 86 76 197
14 55 16 257 2 316 -22 97 -65 195 -119 275 -32 46 -130 147 -182 188 -29 22
-164 92 -188 96 -7 2 -38 10 -69 20 -72 22 -232 27 -315 11z"/>
<path d="M4080 6029 c-25 -5 -57 -11 -72 -13 -51 -9 -163 -59 -228 -101 -148
-97 -252 -232 -309 -401 -56 -167 -48 -365 22 -524 43 -98 49 -109 97 -170
154 -199 381 -305 630 -295 106 4 121 7 211 35 138 42 302 167 388 293 49 73
96 183 114 272 17 84 20 238 5 290 -4 17 -11 43 -13 58 -18 98 -102 244 -194
336 -105 106 -224 174 -371 212 -55 14 -219 18 -280 8z"/>
<path d="M6930 6028 c-25 -5 -54 -11 -65 -12 -61 -7 -167 -54 -252 -112 -70
-48 -153 -130 -192 -189 -14 -22 -30 -43 -36 -47 -5 -4 -6 -8 -1 -8 5 0 2 -8
-6 -17 -17 -21 -51 -100 -67 -158 -31 -109 -34 -264 -7 -383 48 -212 215 -417
416 -509 110 -50 163 -63 295 -68 214 -9 403 64 556 215 143 141 218 310 225
511 5 143 -16 242 -82 374 -77 156 -219 287 -386 356 -39 16 -78 29 -88 29 -9
0 -20 3 -24 7 -15 15 -225 23 -286 11z"/>
<path d="M1259 3796 c-2 -2 -22 -6 -44 -9 -107 -14 -260 -81 -343 -151 -81
-66 -192 -201 -192 -232 0 -6 -6 -17 -14 -23 -18 -15 -64 -163 -75 -239 -36
-277 77 -542 304 -712 46 -34 143 -92 155 -92 3 0 16 -5 30 -10 105 -42 308
-55 425 -29 291 67 519 298 582 591 9 44 10 255 1 295 -20 85 -29 111 -63 185
-21 44 -42 80 -47 80 -4 0 -8 6 -8 13 0 21 -119 145 -183 191 -134 95 -253
135 -418 141 -59 3 -108 3 -110 1z"/>
<path d="M4030 3779 c-41 -11 -82 -21 -91 -23 -45 -12 -161 -75 -212 -116 -87
-70 -172 -173 -216 -265 -88 -182 -100 -393 -35 -583 25 -73 80 -175 119 -221
29 -35 125 -131 125 -125 0 3 9 -3 20 -14 34 -31 143 -87 215 -110 104 -33
151 -39 266 -35 134 5 139 6 139 17 0 5 3 7 6 4 14 -15 178 54 254 106 64 44
166 149 207 213 34 53 70 126 73 148 1 6 6 16 12 23 6 6 8 12 4 12 -3 0 -1 12
5 28 18 45 21 63 26 165 12 218 -62 411 -218 566 -42 42 -84 82 -94 90 -24 19
-185 102 -185 96 0 -3 -8 -1 -18 4 -11 6 -30 12 -43 15 -13 3 -35 8 -49 11
-62 16 -235 12 -310 -6z"/>
<path d="M6894 3785 c-200 -42 -381 -165 -487 -332 -88 -138 -121 -252 -121
-418 0 -121 14 -187 64 -305 73 -172 242 -331 422 -398 92 -34 155 -45 263
-46 216 -1 391 70 540 219 110 110 171 221 212 390 12 49 10 234 -3 295 -50
237 -209 440 -422 538 -31 14 -61 27 -67 29 -5 1 -35 9 -65 18 -71 21 -256 26
-336 10z"/>
<path d="M1245 1554 c-241 -39 -433 -164 -550 -359 -113 -187 -140 -401 -77
-620 14 -48 83 -186 113 -223 19 -25 105 -115 139 -146 40 -36 185 -108 265
-131 67 -19 114 -26 185 -27 120 -1 169 3 176 14 3 4 9 6 14 3 21 -13 203 67
280 124 41 30 163 151 152 151 -4 0 -2 4 3 8 33 24 116 187 129 252 2 14 9 46
15 73 13 57 14 252 1 252 -1 0 -3 11 -5 25 -16 133 -123 321 -239 419 -10 9
-24 22 -31 29 -8 6 -18 12 -24 12 -6 0 -11 4 -11 9 0 14 -148 87 -225 110 -38
12 -103 24 -143 26 -40 2 -76 6 -80 8 -4 2 -43 -2 -87 -9z"/>
<path d="M4208 1565 c-3 -3 -36 -7 -75 -9 -177 -11 -345 -87 -470 -213 -65
-66 -113 -123 -113 -137 0 -5 -6 -17 -14 -25 -16 -18 -73 -155 -80 -192 -3
-13 -5 -24 -6 -24 -12 0 -17 -218 -6 -289 40 -272 263 -524 531 -601 172 -49
382 -35 535 37 68 32 171 107 226 164 85 88 171 236 188 326 2 13 9 43 15 68
10 44 9 251 -1 280 -3 8 -13 42 -23 75 -46 157 -148 297 -295 401 -46 33 -99
63 -120 69 -3 1 -21 8 -41 17 -39 17 -107 33 -184 43 -28 4 -53 9 -56 11 -3 2
-8 1 -11 -1z"/>
<path d="M7037 1564 c-3 -3 -20 -5 -38 -6 -52 0 -174 -27 -224 -48 -25 -11
-45 -17 -45 -15 0 3 -30 -14 -67 -37 -239 -146 -371 -369 -377 -638 -2 -100 8
-166 43 -280 12 -38 92 -184 116 -209 104 -112 161 -157 259 -206 81 -39 117
-52 205 -71 69 -15 219 -10 310 10 155 34 314 138 424 277 21 25 37 51 37 57
0 6 4 12 8 14 20 8 85 168 99 246 9 47 10 225 1 277 -23 145 -97 285 -213 401
-131 132 -288 206 -464 220 -29 2 -57 6 -61 9 -4 2 -10 2 -13 -1z"/>
</g>
</svg>
